<svg id="Capa_1" data-name="Capa 1" xmlns="http://www.w3.org/2000/svg" viewBox="0 0 511.8 512"><title>1</title><path d="M71.24,362.83a10,10,0,1,0,2.93,7.07A10.05,10.05,0,0,0,71.24,362.83Z" transform="translate(-0.1 0)"/><path d="M444.46,67.63a10,10,0,1,0,2.93,7.07A10.07,10.07,0,0,0,444.46,67.63Z" transform="translate(-0.1 0)"/><path d="M183.66,282.79a10,10,0,1,0,2.93,7.07A10.07,10.07,0,0,0,183.66,282.79Z" transform="translate(-0.1 0)"/><path d="M490.1,22A74.56,74.56,0,0,0,366.49,51.68c-9.79,30.24-27.51,59.09-51.3,83.68L244,64.19a38,38,0,0,0-53.71,0L182.54,72a38,38,0,0,0-5.75,46.33L8.93,286.15a30.15,30.15,0,0,0,0,42.64L31.13,351a10,10,0,0,0,14.13-14.13l-22.2-22.2a10.17,10.17,0,0,1,0-14.37l59-59a25.82,25.82,0,0,1,18.42-7.61A26.16,26.16,0,0,1,119,241.44a27,27,0,0,1,0,38.15L99.07,299.53a39.25,39.25,0,0,0,0,55.44l14.25,14.25a36.52,36.52,0,0,0,51.55,0l20.73-20.62a12.4,12.4,0,1,1,17.53,17.53L192.4,376.91a33,33,0,0,0,23.3,56.26h0A32.75,32.75,0,0,0,239,423.52l9.94-9.94a13.41,13.41,0,0,1,9.55-4h0a13.63,13.63,0,0,1,9.67,4l.42.42a12.84,12.84,0,0,1,0,18.16L211.82,489a10.17,10.17,0,0,1-14.38,0L151.8,443.39,155,423.48A10,10,0,0,0,144,412L122.8,414.4,97.56,389.15a10,10,0,1,0-14.13,14.13l28.65,28.65a10,10,0,0,0,8.2,2.86l12.89-1.47-1.9,12a10,10,0,0,0,2.8,8.63l49.24,49.24a30.15,30.15,0,0,0,42.64,0L393.8,335.32a38,38,0,0,0,46.34-5.76l7.77-7.77a38,38,0,0,0,0-53.71L376.72,196.9c23.27-22.73,52-40.17,85.33-51.85a73.85,73.85,0,0,0,28.05-17.65A74.62,74.62,0,0,0,490.1,22ZM290,410.87a32.77,32.77,0,0,0-7.24-10.92l-.42-.42a33.5,33.5,0,0,0-23.77-9.89h-.06a33.26,33.26,0,0,0-23.68,9.81l-9.94,9.94A13,13,0,1,1,206.54,391l10.74-10.74a32.39,32.39,0,0,0-45.78-45.82L150.77,355.1a16.51,16.51,0,0,1-23.31,0l-14.25-14.25a19.24,19.24,0,0,1,0-27.17l19.94-19.94a47,47,0,0,0,0-66.42,46.06,46.06,0,0,0-24.29-12.82l81.25-81.25,26.26,26.26-19.73,19.73a10,10,0,0,0,14.13,14.13l19.73-19.73,24.09,24.09-53.54,53.54a10,10,0,0,0,14.13,14.13l53.54-53.54,15.76,15.76,47.89,47.89-.23.21-42.44,42.44a10,10,0,0,0,14.13,14.13l42.44-42.44.21-.23L378.87,322ZM433.77,282.22a18,18,0,0,1,0,25.44L426,315.42a18,18,0,0,1-25.44,0L196.67,111.53a18,18,0,0,1,0-25.44l7.77-7.77a18,18,0,0,1,25.44,0l78.27,78.27h0l23.67,23.67ZM476,113.27a54,54,0,0,1-20.52,12.92c-36.24,12.67-67.47,31.7-92.88,56.56l-33.24-33.24c26-26.82,45.41-58.44,56.17-91.67A54.56,54.56,0,1,1,476,113.27Z" transform="translate(-0.1 0)"/></svg>