<svg id="Capa_1" data-name="Capa 1" xmlns="http://www.w3.org/2000/svg" viewBox="0 0 215.35 215.35"><title>2</title><path d="M7.5,65.09a7.5,7.5,0,0,0,7.5-7.5v-32L63.31,73.9A7.5,7.5,0,1,0,73.91,63.3L25.6,15h32a7.5,7.5,0,1,0,0-15H7.5A7.5,7.5,0,0,0,0,7.5V57.59A7.5,7.5,0,0,0,7.5,65.09Z" transform="translate(0 0)"/><path d="M207.85,150.26a7.5,7.5,0,0,0-7.5,7.5v32l-49.79-49.79A7.5,7.5,0,1,0,140,150.56l49.79,49.79h-32a7.5,7.5,0,1,0,0,15h50.09a7.5,7.5,0,0,0,7.5-7.5V157.76A7.5,7.5,0,0,0,207.85,150.26Z" transform="translate(0 0)"/><path d="M64.79,139.95,15,189.74v-32a7.5,7.5,0,1,0-15,0v50.09a7.5,7.5,0,0,0,7.5,7.5H57.59a7.5,7.5,0,1,0,0-15h-32L75.4,150.56a7.5,7.5,0,0,0-10.61-10.61Z" transform="translate(0 0)"/><path d="M207.85,0H157.76a7.5,7.5,0,1,0,0,15h32l-48.3,48.3a7.5,7.5,0,0,0,10.61,10.61l48.3-48.3v32a7.5,7.5,0,0,0,15,0V7.5A7.5,7.5,0,0,0,207.85,0Z" transform="translate(0 0)"/></svg>