<svg id="Layer_1" data-name="Layer 1" xmlns="http://www.w3.org/2000/svg" viewBox="0 0 511.79 512"><title>3</title><path d="M400.32,399.36c-13.65,12.8-13.65,34.13,0,47.79a33,33,0,0,0,47.79,0c13.65-12.8,13.65-34.13,0-47.79C435.31,385.71,414,385.71,400.32,399.36Zm35.84,36.69a16.89,16.89,0,1,1-23.89-23.89,16.5,16.5,0,0,1,23.89,0A16.5,16.5,0,0,1,436.16,436.05Z" transform="translate(-0.11)"/><path d="M506.13,409.6,352.53,256l60.59-60.59h0L449,159.57h0L501,107.52a37.6,37.6,0,0,0,0-52.91L457.49,11.09a37.09,37.09,0,0,0-52.91,0L352.53,63.15,316.69,99l-60.59,60.59L104.21,7.68c-9.39-9.39-26.45-9.39-35.84,0L7.79,68.27c-10.24,9.39-10.24,25.6,0,35.84L25.71,122h0l48.64,48.64h0l47.79,47.79h0L159.68,256l-137,137c-2.55,1.13-3.93,3.43-4.67,6.37L.11,501.76q0,5.12,2.56,7.68a7.74,7.74,0,0,0,6,2.56h1.71l98.44-18.2a8.69,8.69,0,0,0,2.25.28c2.56,0,5.12-.85,6-2.56L256.11,352.43l11.09,11.09h0l23.89,23.89h0L409.71,506a20,20,0,0,0,14.51,6c5.12,0,10.24-1.71,13.65-6l68.27-68.27A20.09,20.09,0,0,0,506.13,409.6ZM111,472.75,81.18,442.89,364.9,160l29.45,29.45ZM416.53,23c7.68-7.68,21.33-7.68,29,0l43.52,43.52c7.68,7.68,7.68,21.33,0,29L443,141.65,370.45,69.12Zm-58,58,36.27,36.27L431,153.6l-23.89,23.89L334.61,105ZM164.37,236.8l18.35-18.35a8.45,8.45,0,0,0-11.95-11.95l-18.35,18.35-12.37-12.37,29.87-29.87A8.45,8.45,0,0,0,158,170.67l-29.87,29.87-11.95-11.95,17.92-17.92a8.45,8.45,0,1,0-11.95-11.95l-17.92,17.92L92.26,164.69l29.87-29.87a8.45,8.45,0,1,0-11.95-11.95L80.32,152.75l-12.8-12.8L85.44,122a8.45,8.45,0,0,0-11.95-11.95L55.57,128,43.63,116.05,73.49,86.19A8.45,8.45,0,0,0,61.55,74.24L31.68,104.11,19.73,92.16a8.25,8.25,0,0,1,0-11.95L80.32,19.63a7.75,7.75,0,0,1,6-2.56,9.21,9.21,0,0,1,6,2.56L244.16,171.52l-72.53,72.53Zm158.29-119,29.86,29.86L68.81,430.52,39.36,401.07ZM32.53,418.13l28,28a8.88,8.88,0,0,0,1.87,2.72L93.25,479.7,19.73,492.37Zm461.65,7.68-68.27,68.27a3.88,3.88,0,0,1-4.27,0l-88.32-88.32,30.29-30.29a8.45,8.45,0,0,0-11.95-11.95l-30.29,30.29L309,381.44l17.92-17.92A8.45,8.45,0,0,0,315,351.57l-17.92,17.92-11.95-11.95L315,327.68A8.45,8.45,0,0,0,303,315.73L273.17,345.6l-5.12-5.12,72.53-72.53,153.6,153.6A3.87,3.87,0,0,1,494.19,425.81Z" transform="translate(-0.11)"/></svg>