<svg id="Capa_1" data-name="Capa 1" xmlns="http://www.w3.org/2000/svg" viewBox="0 0 457.53 512"><title>4</title><path d="M147.06,0H38.13A10.9,10.9,0,0,0,27.23,10.89V392.17a10.9,10.9,0,0,0,10.89,10.89H147.06A10.9,10.9,0,0,0,158,392.17V10.89A10.9,10.9,0,0,0,147.06,0ZM136.17,381.28H49V21.79h87.15Z" transform="translate(-27.23)"/><path d="M256,54.47H147.06a10.9,10.9,0,0,0-10.89,10.89V501.11A10.9,10.9,0,0,0,147.06,512H256a10.9,10.9,0,0,0,10.89-10.89V65.36A10.9,10.9,0,0,0,256,54.47ZM245.11,490.21H158v-414h87.15Z" transform="translate(-27.23)"/><path d="M364.94,0H256a10.9,10.9,0,0,0-10.89,10.89V392.17A10.9,10.9,0,0,0,256,403.06H364.94a10.9,10.9,0,0,0,10.89-10.89V10.89A10.9,10.9,0,0,0,364.94,0ZM354,381.28H266.89V21.79H354V381.28Z" transform="translate(-27.23)"/><path d="M473.87,54.47H364.94A10.9,10.9,0,0,0,354,65.36V501.11A10.9,10.9,0,0,0,364.94,512H473.87a10.9,10.9,0,0,0,10.89-10.89V65.36A10.9,10.9,0,0,0,473.87,54.47ZM463,490.21H375.83v-414H463Z" transform="translate(-27.23)"/><path d="M65.36,32.68a5.45,5.45,0,0,0-5.45,5.45V147.06a5.45,5.45,0,1,0,10.89,0V38.13A5.45,5.45,0,0,0,65.36,32.68Z" transform="translate(-27.23)"/><path d="M92.6,196.09a5.45,5.45,0,0,0-5.45,5.45V256A5.45,5.45,0,1,0,98,256V201.53A5.45,5.45,0,0,0,92.6,196.09Z" transform="translate(-27.23)"/><path d="M92.6,305a5.45,5.45,0,0,0-5.45,5.45V337.7a5.45,5.45,0,0,0,10.89,0V310.47A5.45,5.45,0,0,0,92.6,305Z" transform="translate(-27.23)"/><path d="M92.6,59.92a5.45,5.45,0,0,0-5.45,5.45v54.47a5.45,5.45,0,1,0,10.89,0V65.36A5.45,5.45,0,0,0,92.6,59.92Z" transform="translate(-27.23)"/><path d="M228.77,87.15a5.45,5.45,0,0,0-5.45,5.45V228.77a5.45,5.45,0,0,0,10.89,0V92.6A5.45,5.45,0,0,0,228.77,87.15Z" transform="translate(-27.23)"/><path d="M201.53,141.62a5.45,5.45,0,0,0-5.45,5.45v54.47a5.45,5.45,0,1,0,10.89,0V147.06A5.45,5.45,0,0,0,201.53,141.62Z" transform="translate(-27.23)"/><path d="M174.3,277.79a5.45,5.45,0,0,0-5.45,5.45v81.7a5.45,5.45,0,0,0,10.89,0v-81.7A5.45,5.45,0,0,0,174.3,277.79Z" transform="translate(-27.23)"/><path d="M201.53,305a5.45,5.45,0,0,0-5.45,5.45V446.64a5.45,5.45,0,0,0,10.89,0V310.47A5.45,5.45,0,0,0,201.53,305Z" transform="translate(-27.23)"/><path d="M310.47,32.68A5.45,5.45,0,0,0,305,38.13V92.6a5.45,5.45,0,1,0,10.89,0V38.13A5.45,5.45,0,0,0,310.47,32.68Z" transform="translate(-27.23)"/><path d="M337.7,114.38a5.45,5.45,0,0,0-5.45,5.45v163.4a5.45,5.45,0,1,0,10.89,0V119.83A5.45,5.45,0,0,0,337.7,114.38Z" transform="translate(-27.23)"/><path d="M310.47,141.62a5.45,5.45,0,0,0-5.45,5.45V174.3a5.45,5.45,0,1,0,10.89,0V147.06A5.45,5.45,0,0,0,310.47,141.62Z" transform="translate(-27.23)"/><path d="M283.23,196.09a5.45,5.45,0,0,0-5.45,5.45V337.7a5.45,5.45,0,0,0,10.89,0V201.53A5.45,5.45,0,0,0,283.23,196.09Z" transform="translate(-27.23)"/><path d="M392.17,359.49a5.44,5.44,0,0,0-5.45,5.45V473.87a5.45,5.45,0,0,0,10.89,0V364.94A5.44,5.44,0,0,0,392.17,359.49Z" transform="translate(-27.23)"/><path d="M419.4,305a5.44,5.44,0,0,0-5.45,5.45V419.4a5.45,5.45,0,1,0,10.89,0V310.47A5.44,5.44,0,0,0,419.4,305Z" transform="translate(-27.23)"/><path d="M392.17,141.62a5.45,5.45,0,0,0-5.45,5.45V174.3a5.45,5.45,0,1,0,10.89,0V147.06A5.45,5.45,0,0,0,392.17,141.62Z" transform="translate(-27.23)"/><path d="M446.64,196.09a5.45,5.45,0,0,0-5.45,5.45v81.7a5.45,5.45,0,0,0,10.89,0v-81.7A5.45,5.45,0,0,0,446.64,196.09Z" transform="translate(-27.23)"/></svg>