<svg id="Capa_1" data-name="Capa 1" xmlns="http://www.w3.org/2000/svg" viewBox="0 0 496.55 496.94"><title>5</title><path d="M475.3,106.92l-12-3.76a38.15,38.15,0,0,0-9.79-1.51c-13.55,0-25.6,9-30.12,21.83l-6.78,20.33V128c0-2.26-1.51-4.52-3-6L290.08,2.26A8.13,8.13,0,0,0,284.8,0H43.11a7.11,7.11,0,0,0-7.53,7.53V30.87H7.72A7.11,7.11,0,0,0,.19,38.4v451a7.11,7.11,0,0,0,7.53,7.53H373.65a7.11,7.11,0,0,0,7.53-7.53V466.07H409a7.11,7.11,0,0,0,7.53-7.53V356.89l21.08-28.61.75-2.26,56.47-180C500.9,129.51,491.86,112.19,475.3,106.92Zm-183-81.32L391,120.47H292.33Zm73.79,456.28H15.25v-436H35.58V458.54a7.11,7.11,0,0,0,7.53,7.53h323v15.81ZM402.26,451H50.64v-436H277.27V128a7.11,7.11,0,0,0,7.53,7.53H402.26V192L366.88,303.43v2.26l1.51,95.62a7.23,7.23,0,0,0,5.27,6.78c3,.75,6.78,0,8.28-3L402.26,378v73Zm-19.58-73-1.51-62.49,37.65,12Zm98.64-236.42L427.11,314l-43.67-14.31L437.65,128c3-8.28,12-13.55,20.33-10.54l12,3.76C479.06,123.48,484.33,133.27,481.32,141.55Z" transform="translate(-0.19)"/><path d="M101.84,135.53H210.26a7.11,7.11,0,0,0,7.53-7.53V51.2a7.11,7.11,0,0,0-7.53-7.53H101.84a7.11,7.11,0,0,0-7.53,7.53V128A8.1,8.1,0,0,0,101.84,135.53Zm7.53-76.8h93.36v61.74H109.37Z" transform="translate(-0.19)"/><path d="M86.78,206.31H315.68a7.53,7.53,0,0,0,0-15.06H86.78a7.53,7.53,0,0,0,0,15.06Z" transform="translate(-0.19)"/><path d="M86.78,261.27H315.68a7.53,7.53,0,0,0,0-15.06H86.78a7.53,7.53,0,0,0,0,15.06Z" transform="translate(-0.19)"/><path d="M86.78,316.23H315.68a7.53,7.53,0,0,0,0-15.06H86.78a7.53,7.53,0,1,0,0,15.06Z" transform="translate(-0.19)"/><path d="M322.45,363.67a7.11,7.11,0,0,0-7.53-7.53H86.78a7.53,7.53,0,1,0,0,15.06H315.68C319.44,371.2,322.45,367.43,322.45,363.67Z" transform="translate(-0.19)"/><path d="M347.3,411.11H233.6a7.53,7.53,0,1,0,0,15.06H346.55a7.11,7.11,0,0,0,7.53-7.53C354.07,414.12,351.06,411.11,347.3,411.11Z" transform="translate(-0.19)"/></svg>