<svg id="Capa_1" data-name="Capa 1" xmlns="http://www.w3.org/2000/svg" viewBox="0 0 394.89 356.93"><title>check_nav</title><path d="M344.43,192a12.5,12.5,0,0,0-12.5,12.5V350.91H25V44H271.57a12.5,12.5,0,1,0,0-25H12.5A12.5,12.5,0,0,0,0,31.48V363.41a12.5,12.5,0,0,0,12.5,12.5H344.43a12.5,12.5,0,0,0,12.5-12.5V204.46A12.5,12.5,0,0,0,344.43,192Z" transform="translate(0 -18.98)" style="fill:#ffe400"/><path d="M391.23,27.2a12.5,12.5,0,0,0-17.68,0L170,230.8l-50.58-50.58a12.5,12.5,0,0,0-17.68,17.68l59.42,59.42a12.5,12.5,0,0,0,17.68,0L391.23,44.88A12.5,12.5,0,0,0,391.23,27.2Z" transform="translate(0 -18.98)" style="fill:#ffe400"/></svg>