<svg id="Capa_1" data-name="Capa 1" xmlns="http://www.w3.org/2000/svg" viewBox="0 0 424 512"><title>4</title><path d="M400,152H256a10,10,0,1,0,0,20H400a10,10,0,1,0,0-20Z" transform="translate(-44)"/><path d="M365,202.93a10,10,0,1,0,2.93,7.07A10.08,10.08,0,0,0,365,202.93Z" transform="translate(-44)"/><path d="M263.06,45.93A10,10,0,1,0,266,53,10.08,10.08,0,0,0,263.06,45.93Z" transform="translate(-44)"/><path d="M315.88,200H256a10,10,0,0,0,0,20h59.88a10,10,0,1,0,0-20Z" transform="translate(-44)"/><path d="M400,260H256a10,10,0,1,0,0,20H400a10,10,0,1,0,0-20Z" transform="translate(-44)"/><path d="M365,310.93a10,10,0,1,0,2.93,7.07A10.08,10.08,0,0,0,365,310.93Z" transform="translate(-44)"/><path d="M315.88,308H256a10,10,0,0,0,0,20h59.88a10,10,0,1,0,0-20Z" transform="translate(-44)"/><path d="M400,368H256a10,10,0,1,0,0,20H400a10,10,0,1,0,0-20Z" transform="translate(-44)"/><path d="M365,418.93a10,10,0,1,0,2.93,7.07A10.08,10.08,0,0,0,365,418.93Z" transform="translate(-44)"/><path d="M315.88,416H256a10,10,0,0,0,0,20h59.88a10,10,0,1,0,0-20Z" transform="translate(-44)"/><path d="M419.24,39H342.86a61.27,61.27,0,0,0-42.39-17h-8.76a40,40,0,0,0-71.44,0H211.5a61.27,61.27,0,0,0-42.38,17H92.76A48.81,48.81,0,0,0,44,87.76V463.24A48.81,48.81,0,0,0,92.76,512H419.24A48.81,48.81,0,0,0,468,463.24V87.76A48.81,48.81,0,0,0,419.24,39ZM211.5,42h15.59a10,10,0,0,0,9.64-7.34,20,20,0,0,1,38.55,0A10,10,0,0,0,284.91,42h15.57a41.56,41.56,0,0,1,41.35,38H170.15A41.56,41.56,0,0,1,211.5,42ZM448,463.24A28.79,28.79,0,0,1,419.24,492H92.76A28.79,28.79,0,0,1,64,463.24V87.76A28.79,28.79,0,0,1,92.76,59h62.35A61.13,61.13,0,0,0,150,83.5V90a10,10,0,0,0,10,10H352a10,10,0,0,0,10-10V83.5A61.14,61.14,0,0,0,356.88,59h62.37A28.79,28.79,0,0,1,448,87.76Z" transform="translate(-44)"/><path d="M192.41,149.6a10,10,0,0,0-14.14,0l-42.76,42.76-13.17-13.17a10,10,0,0,0-14.14,14.14l20.25,20.24a10,10,0,0,0,14.14,0l49.83-49.83A10,10,0,0,0,192.41,149.6Z" transform="translate(-44)"/><path d="M168,368H120a10,10,0,0,0-10,10v48a10,10,0,0,0,10,10h48a10,10,0,0,0,10-10V378A10,10,0,0,0,168,368Zm-10,48H130V388h28Z" transform="translate(-44)"/><path d="M168,260H120a10,10,0,0,0-10,10v48a10,10,0,0,0,10,10h48a10,10,0,0,0,10-10V270A10,10,0,0,0,168,260Zm-10,48H130V280h28Z" transform="translate(-44)"/></svg>