<svg id="Layer_1" data-name="Layer 1" xmlns="http://www.w3.org/2000/svg" viewBox="0 0 508.5 512"><title>8</title><path d="M494.35,46.61,463.59,15.84c-20.06-20.06-53.87-21.23-75.37-2.6L334.15,60.11a8.71,8.71,0,0,0-1.76,2.09l-52.64,87.68L246,161.15a8.69,8.69,0,0,0-3.39,14.38l92.1,92.1a8.69,8.69,0,0,0,14.38-3.39l11.27-33.81,89-53.72a8.69,8.69,0,0,0,2.08-1.76l45.76-53C515.66,100.45,514.41,66.67,494.35,46.61Zm-10.37,64-44.86,52L348.6,217.21a8.68,8.68,0,0,0-3.75,4.69L337,245.41l-20.76-20.76h0l-30.7-30.7h0l-20.76-20.76,23.51-7.84a8.69,8.69,0,0,0,4.7-3.77l53.58-89.24,53-46c14.75-12.79,37.95-12,51.71,1.76l30.77,30.77C495.84,72.66,496.69,95.84,484,110.57Z" transform="translate(-1.75 0)"/><path d="M469.74,348.92a95.56,95.56,0,0,0-97-23.33L188.16,141A95.56,95.56,0,0,0,62.38,22.62a8.68,8.68,0,0,0-3,14.22l55.24,55.24L77.81,128.93,22.57,73.68a8.68,8.68,0,0,0-14.23,3A95.56,95.56,0,0,0,126.76,202.44l69,69-85.94,85.94L55.17,387.94a8.69,8.69,0,0,0-3.53,3.7L27.08,440.76a8.68,8.68,0,0,0,1.63,10l30.7,30.7a8.69,8.69,0,0,0,10,1.63l49.12-24.56a8.69,8.69,0,0,0,3.7-3.53l30.56-54.66,85.94-85.94L311.31,387A95.55,95.55,0,0,0,437.09,505.41a8.68,8.68,0,0,0,3-14.22l-55.24-55.24,36.84-36.84,55.24,55.24a8.68,8.68,0,0,0,14.22-3A95.56,95.56,0,0,0,469.74,348.92Zm-330.06,40a8.67,8.67,0,0,0-1.44,1.9L108.4,444.21,67.27,464.78,45.42,442.93,66,401.8,119.36,372a8.67,8.67,0,0,0,1.9-1.44L208,283.73l18.42,18.42Zm339.18,42.8-51.05-51.05a8.69,8.69,0,0,0-12.28,0L366.4,429.8a8.69,8.69,0,0,0,0,12.28l51.05,51.05a78.19,78.19,0,0,1-88-105.23,8.69,8.69,0,0,0-1.94-9.31L135.16,186.27a8.68,8.68,0,0,0-9.31-1.94,78.19,78.19,0,0,1-105.23-88l51.05,51.05a8.69,8.69,0,0,0,12.28,0l49.12-49.12a8.68,8.68,0,0,0,0-12.28L82,34.89a78.19,78.19,0,0,1,88,105.23,8.69,8.69,0,0,0,1.94,9.31L364.32,341.75a8.69,8.69,0,0,0,9.31,1.94,78.19,78.19,0,0,1,105.23,88Z" transform="translate(-1.75 0)"/></svg>