<svg id="Layer_1" data-name="Layer 1" xmlns="http://www.w3.org/2000/svg" viewBox="0 0 498.19 512"><title>2</title><path d="M397.74,78.38A12.36,12.36,0,0,0,410.09,66V27a27.05,27.05,0,0,0-27-27H121.64a12.37,12.37,0,0,0-8.74,3.62L10.53,106a12.36,12.36,0,0,0-3.62,8.74V485a27.06,27.06,0,0,0,27,27H383.08a27.05,27.05,0,0,0,27-27V296.29a12.36,12.36,0,1,0-24.71,0V485a2.31,2.31,0,0,1-2.3,2.31H33.94A2.31,2.31,0,0,1,31.63,485V127.09H107a27,27,0,0,0,27-27V24.72H383.08a2.31,2.31,0,0,1,2.3,2.31V66A12.36,12.36,0,0,0,397.74,78.38Zm-288.45,21.7a2.3,2.3,0,0,1-2.3,2.3H49.11L109.29,42.2Z" transform="translate(-6.91)"/><path d="M492.86,100.4,478.32,85.86a41.87,41.87,0,0,0-59.14,0L303.76,201.28H103.56a12.36,12.36,0,0,0,0,24.72H279l-74.38,74.38H103.56a12.36,12.36,0,0,0,0,24.72H180l-.2.2a12.36,12.36,0,0,0-3.17,5.43l-19.09,68.75H103.56a12.36,12.36,0,0,0,0,24.72h63.33s2.71-.31,3.11-.41l78-21.64a12.36,12.36,0,0,0,5.43-3.17L492.87,159.53A41.86,41.86,0,0,0,492.86,100.4ZM184.64,394.07l10.09-36.33L221,384Zm60-21.32L206,334,403.62,136.38l38.72,38.72Zm230.7-230.7-15.57,15.57L421.09,118.9l15.57-15.57a17.12,17.12,0,0,1,24.18,0l14.54,14.54A17.12,17.12,0,0,1,475.39,142.05Z" transform="translate(-6.91)"/></svg>