<svg id="Capa_1" data-name="Capa 1" xmlns="http://www.w3.org/2000/svg" viewBox="0 0 512 455.94"><title>6</title><path d="M70,264a10,10,0,1,0,10,10A10,10,0,0,0,70,264Z" transform="translate(0 -28.03)"/><path d="M512,299a44.93,44.93,0,0,0-16.75-35,45,45,0,0,0,16.14-42.49C507.91,200.1,488,184,465.13,184H369.87l3-8.9C389.78,124.24,374,69.93,336.74,38.15c-20.83-18-56.38-12-67.3,17.76a10,10,0,0,0-.15,6.44c8.31,26.42,8.42,44.19.41,61.32-8.31,17.77-26.2,36.43-59.81,62.38a148.58,148.58,0,0,1-21.94,13.72c-10.74,5.8-20.94,11.31-31.49,24.19H120V214a10,10,0,0,0-10-10H10A10,10,0,0,0,0,214V474a10,10,0,0,0,10,10H110a10,10,0,0,0,10-10V444h56.09a158.37,158.37,0,0,0,105.53,40H407a45,45,0,0,0,37.4-70H447a45,45,0,0,0,35.42-72.7A45,45,0,0,0,512,299ZM100,464H20V224h80ZM467,324H371a10,10,0,0,0,0,20h76a25,25,0,0,1,0,50H371a10,10,0,0,0,0,20h36a25,25,0,0,1,0,50H281.62a138.44,138.44,0,0,1-94.83-37.31A10,10,0,0,0,180,424H120V244h41.36a10,10,0,0,0,8.05-4.07c9-12.25,17-16.56,28-22.52a167.52,167.52,0,0,0,24.66-15.49C290.58,149,306.25,116.6,289.47,60c6.63-12.75,23.17-16.19,34.92-6,31.87,27.86,43.44,72.93,29.47,114.83L348.79,184H336a10,10,0,0,0,0,20H465.13c13.2,0,24.6,8.91,26.52,20.73A25,25,0,0,1,467,254H371a10,10,0,0,0,0,20h96a25,25,0,1,1,0,50Z" transform="translate(0 -28.03)"/><path d="M70,304a10,10,0,0,0-10,10V414a10,10,0,0,0,20,0V314A10,10,0,0,0,70,304Z" transform="translate(0 -28.03)"/></svg>