<svg id="Capa_1" data-name="Capa 1" xmlns="http://www.w3.org/2000/svg" viewBox="0 0 368 304"><title>3</title><path d="M328,144H285.25L238.67,36.82A8,8,0,0,0,231.34,32H16A16,16,0,0,0,0,48V296a8,8,0,0,0,8,8H32.81a40,40,0,0,0,78.38,0H256.81a40,40,0,0,0,78.38,0H360a8,8,0,0,0,8-8V184A40,40,0,0,0,328,144ZM226.09,48l41.72,96H188.64L148.07,48ZM72,320a24,24,0,1,1,24-24A24,24,0,0,1,72,320Zm224,0a24,24,0,1,1,24-24A24,24,0,0,1,296,320Zm56-32H335.19a40,40,0,0,0-78.38,0H111.19a40,40,0,0,0-78.38,0H16V208H352Zm0-96H16V160h88a8,8,0,0,0,0-16H16V48H130.7L176,155.12a8,8,0,0,0,7.37,4.88H328a24,24,0,0,1,24,24Z" transform="translate(0 -32)"/></svg>