<svg id="Capa_1" data-name="Capa 1" xmlns="http://www.w3.org/2000/svg" viewBox="0 0 448 480"><title>1</title><path d="M460.06,209.1a8,8,0,0,0-7.94-.1l-22,12.23L424,7.78A8,8,0,0,0,416,0H360a8,8,0,0,0-8,7.78l-7.46,261L320,282.4V216a8,8,0,0,0-11.88-7L176,282.4V216a8,8,0,0,0-11.88-7l-144,80A8,8,0,0,0,16,296V472a8,8,0,0,0,8,8H456a8,8,0,0,0,8-8V216A8,8,0,0,0,460.06,209.1ZM367.78,16h40.45l.46,16H367.32Zm-.92,32h42.29l5.2,182L360.8,259.73ZM232,464H184V424h48Zm64,0H248V424h48Zm152,0H312V416a8,8,0,0,0-8-8H176a8,8,0,0,0-8,8v48H32V300.71L160,229.6V296a8,8,0,0,0,11.88,7L304,229.6V296a8,8,0,0,0,11.88,7l75.45-41.91L426.4,241.6l21.6-12Z" transform="translate(-16 0)"/><path d="M128,320H64a8,8,0,0,0-8,8v32a8,8,0,0,0,8,8h64a8,8,0,0,0,8-8V328A8,8,0,0,0,128,320Zm-8,32H72V336h48Z" transform="translate(-16 0)"/><path d="M272,320H208a8,8,0,0,0-8,8v32a8,8,0,0,0,8,8h64a8,8,0,0,0,8-8V328A8,8,0,0,0,272,320Zm-8,32H216V336h48Z" transform="translate(-16 0)"/><path d="M416,320H352a8,8,0,0,0-8,8v32a8,8,0,0,0,8,8h64a8,8,0,0,0,8-8V328A8,8,0,0,0,416,320Zm-8,32H360V336h48Z" transform="translate(-16 0)"/></svg>