<svg id="Capa_1" data-name="Capa 1" xmlns="http://www.w3.org/2000/svg" viewBox="0 0 60 54"><title>5</title><path d="M60,21c-.1-1.71-2.13-3-6.2-4.07A2.25,2.25,0,0,0,54,16V9h0c-.36-5.83-24.24-6-27-6S.38,3.17,0,9H0v.13H0V16c0,1.9,2.46,3.39,6.11,4.49A2.19,2.19,0,0,0,6,21H6v.13H6V28c-3.93,1-5.89,2.33-6,4H0v.13H0V39c0,1.32,1.2,2.44,3.15,3.38A2.2,2.2,0,0,0,3,43H3v.13H3V50c0,3.33,7.5,5.39,15.82,6.35a.92.92,0,0,0,.18,0h.05c1.6.18,3.23.32,4.85.42l.1,0h.05c2,.12,4.06.19,5.95.19s3.9-.06,5.95-.19H36l.1,0c1.61-.1,3.24-.24,4.85-.42H41a.92.92,0,0,0,.18,0C49.5,55.39,57,53.32,57,50V43h0c-.07-1.23-1.12-2.25-3.18-3.1A2.24,2.24,0,0,0,54,39V32.46c3.59-1.1,6-2.58,6-4.46V21Zm-8.1,18.32-.34.3A9,9,0,0,1,49,41V36.23a14.88,14.88,0,0,0,3-1.38V39A.64.64,0,0,1,51.89,39.32ZM29.53,44H28V39h1q1.51,0,3-.1v5l-.65,0Zm-4.37,0-1.37,0h-.17L22,43.88v-5q1.5.07,3,.1h1v5h-.84ZM7.1,41.7l-.1,0V36.84c.93.25,1.94.48,3,.69v4.88q-1.38-.29-2.54-.61ZM28.17,50H29v5q-2.07,0-4-.12v-5q1.5.07,3,.1ZM32,50q1.51,0,3-.1v5Q33.07,55,31,55V50h1Zm8-.45v5q-1.44.15-3,.26v-5C38,49.7,39,49.62,40,49.53Zm2-.22q1.55-.19,3-.42V53.8q-1.41.25-3,.46Zm5-.78c1.06-.21,2.07-.44,3-.69v4.83c-.89.26-1.89.51-3,.74Zm-34,0v4.88c-1.11-.24-2.11-.48-3-.74V47.84C10.93,48.09,11.94,48.33,13,48.53Zm2,.36q1.45.24,3,.42v4.95q-1.59-.21-3-.46Zm5,.64c1,.1,2,.18,3,.24v5q-1.56-.11-3-.26Zm-2.48-6-.3,0-.22,0v-5c1,.1,2,.18,3,.24v5C19.16,43.69,18.33,43.63,17.52,43.55ZM15,38.31v4.95q-1.59-.21-3-.46V37.89Q13.45,38.13,15,38.31Zm19.67,5.4-.67,0v-5c1-.07,2-.15,3-.24v5l-1.9.18ZM39,43.26V38.31q1.55-.19,3-.42V42.8Q40.59,43,39,43.26Zm5-5.72c1.06-.21,2.07-.44,3-.69v4.83c-.89.26-1.89.51-3,.74ZM30.33,33l-2.21-.08H28v-5q1.5.07,3,.1h1v5l-1.45,0ZM7,18.67V13.84c.93.25,1.94.48,3,.69v4.88l-.37-.08c-.53-.12-1.05-.24-1.55-.37ZM25.17,16H26v5c-1.35,0-2.68,0-4-.11v-5q1.5.07,3,.1ZM29,16q1.51,0,3-.1v5l-.5,0h0l-2,.07H28V16h1Zm22.79.5h0l-.36.28A9.73,9.73,0,0,1,49,18V13.23a14.88,14.88,0,0,0,3-1.38V16A.79.79,0,0,1,51.77,16.48ZM39,20.25V15.31q1.55-.19,3-.42v4.9C41.05,20,40.05,20.11,39,20.25Zm5-.85V14.53c1.06-.21,2.07-.44,3-.69v4.82C46.1,18.92,45.1,19.17,44,19.41Zm-7-3.88v5q-1.45.15-3,.26v-5C35,15.7,36,15.62,37,15.53Zm-20,5v-5c1,.1,2,.18,3,.24v5C19,20.68,18,20.59,17,20.49Zm-2-5.18v4.94l-.6-.07L14,20.12l-1.7-.26L12,19.8V14.89Q13.45,15.12,15,15.31ZM25.75,32.74l-.41,0-1.87-.17-.39,0H23v-5c1,.09,2,.18,3,.24v5ZM19.15,32,18,31.8v-4.9q1.45.24,3,.42v4.95L19.21,32ZM16,26.53v4.87q-1.66-.36-3-.75V25.84C13.93,26.09,14.94,26.33,16,26.53Zm-5-1.3V30A6.24,6.24,0,0,1,8.08,28.2L8,28.09A.63.63,0,0,1,8,28V23.85A14.88,14.88,0,0,0,11,25.23ZM35,28q1.51,0,3-.1v5c-1.31.06-2.65.1-4,.12V28h1Zm12.92,3.84L46.57,32l-.8.12-.77.1V27.31q1.55-.19,3-.42V31.8Zm-6.77.85L40,32.75v-5c1-.07,2-.15,3-.24v5l-1.76.17ZM52.56,30.8c-.5.14-1,.27-1.56.4l-.76.17-.24,0V26.53c1.06-.21,2.07-.44,3-.69v4.83ZM58,21.07c-.09.68-1.63,1.58-4.38,2.43h0a67.12,67.12,0,0,1-16.09,2.4l-1.08,0-.9,0c-.83,0-1.67,0-2.53,0s-1.71,0-2.53,0l-.9,0-1.08,0a67.11,67.11,0,0,1-16.09-2.4h0C9.66,22.65,8.13,21.76,8,21.08A.23.23,0,0,1,8,21l.21,0,1.2.27c2,.43,4.19.78,6.53,1h0c1.6.18,3.26.33,5,.43H21q1.84.11,3.72.15L27,23l1.61,0a76.58,76.58,0,0,0,18.69-2.32l.63-.19.38-.12,1-.36.17-.07.81-.33.22-.1c.28-.12.54-.25.79-.39l.31-.18.35-.21.2-.12C56.69,19.59,57.88,20.65,58,21.07ZM27,5C43.49,5,51.83,7.6,52,9.09c-.12.68-1.66,1.57-4.37,2.41h0a67.12,67.12,0,0,1-16.09,2.4l-1.08,0-.9,0c-.83,0-1.67,0-2.53,0s-1.71,0-2.53,0l-.9,0-1.08,0a67.11,67.11,0,0,1-16.09-2.4h0C3.67,10.65,2.14,9.76,2,9.09,2.17,7.6,10.51,5,27,5ZM2,16V11.86a14.88,14.88,0,0,0,3,1.38V18C3.06,17.29,2,16.56,2,16ZM6.84,29.83l.05,0c1.37,1.38,4.2,2.47,7.73,3.28l.25.06.79.17A77.12,77.12,0,0,0,27,34.82h0q2,.12,4.15.16L33,35l2.12,0c1.31,0,2.6-.08,3.87-.15h0a77.34,77.34,0,0,0,11.54-1.48,18.12,18.12,0,0,1-3,1.16h0a69,69,0,0,1-17.28,2.45l-.67,0h-.74L27,37c-.87,0-1.71,0-2.53,0l-.9,0-1.08,0a67.11,67.11,0,0,1-16.09-2.4h0C3.64,33.65,2.1,32.74,2,32.06,2.12,31.69,3.13,30.75,6.84,29.83ZM2,39V34.85a14.88,14.88,0,0,0,3,1.38V41l-.57-.22h0C2.85,40.14,2,39.5,2,39ZM5,50V45.85a14.88,14.88,0,0,0,3,1.38V52C6.05,51.29,5,50.56,5,50Zm47,2V47.23a14.88,14.88,0,0,0,3-1.38V50C55,50.56,53.94,51.29,52,52Zm3-8.94c-.11.68-1.65,1.58-4.38,2.42h0a67.12,67.12,0,0,1-16.09,2.4l-1.08,0-.9,0c-.83,0-1.67,0-2.53,0s-1.71,0-2.54,0l-.9,0-1.09,0a67.12,67.12,0,0,1-16.09-2.4h0C6.74,44.68,5.22,43.81,5,43.14l.92.3.1,0,.83.24.32.09.49.13A73,73,0,0,0,21,45.82h0c1.55.09,3.13.15,4.73.17H27l1.69,0c1.46,0,2.9-.08,4.31-.16h0c1.72-.1,3.38-.25,5-.43h.08c1.78-.21,3.46-.46,5-.75l1-.18.21,0A26.87,26.87,0,0,0,51.51,42l.28-.16.32-.2.29-.19C54.38,42.2,54.92,42.83,55,43.08ZM55,30V25.23a14.88,14.88,0,0,0,3-1.38V28C58,28.56,56.94,29.29,55,30Z" transform="translate(0 -3)"/></svg>