<svg id="Capa_1" data-name="Capa 1" xmlns="http://www.w3.org/2000/svg" viewBox="0 0 47 60"><title>1</title><path d="M50.59,0H9.41A2.92,2.92,0,0,0,6.5,2.91V57.09A2.92,2.92,0,0,0,9.41,60H50.59a2.92,2.92,0,0,0,2.91-2.91V2.91A2.92,2.92,0,0,0,50.59,0Zm.91,57.09a.92.92,0,0,1-.91.91H9.41a.92.92,0,0,1-.91-.91V2.91A.92.92,0,0,1,9.41,2H50.59a.92.92,0,0,1,.91.91Z" transform="translate(-6.5)"/><path d="M11.5,55h11V44h-11Zm2-9h7v7h-7Z" transform="translate(-6.5)"/><path d="M24.5,55h11V44h-11Zm2-9h7v7h-7Z" transform="translate(-6.5)"/><path d="M37.5,55h11V31h-11Zm2-22h7V53h-7Z" transform="translate(-6.5)"/><path d="M11.5,42h11V31h-11Zm2-9h7v7h-7Z" transform="translate(-6.5)"/><path d="M24.5,42h11V31h-11Zm2-9h7v7h-7Z" transform="translate(-6.5)"/><path d="M11.5,29h11V18h-11Zm2-9h7v7h-7Z" transform="translate(-6.5)"/><path d="M24.5,29h11V18h-11Zm2-9h7v7h-7Z" transform="translate(-6.5)"/><path d="M37.5,29h11V18h-11Zm2-9h7v7h-7Z" transform="translate(-6.5)"/><path d="M11.5,15h37V5h-37Zm2-8h33v6h-33Z" transform="translate(-6.5)"/></svg>